<svg xmlns="http://www.w3.org/2000/svg" version="1.1" xmlns:xlink="http://www.w3.org/1999/xlink" xmlns:svgjs="http://svgjs.dev/svgjs" width="100%" height="100%" viewBox="0 0 1000 600"><rect width="1000" height="600" x="0" y="0" fill="#e7d045"/><g><circle r="166.66666666666666" cx="261.7664438883463" cy="283.9886548379804" fill="#A04EF" transform="matrix(1.31440923890267,0,0,1.31440923890267,0,-73.2773261840189)"/><path d="M194.1259983013989 358.9886616839879L194.1259983013989 358.9886616839879Q177.70969119434187 358.9886616839879 162.6394627449045 353.6336096330228Q147.56923429546714 348.2492950025442 139.3464494521819 339.82167210266465L139.3464494521819 339.82167210266465L145.46232857049728 327.82401450214167Q153.27543730059392 335.4030225961306 166.4435980816557 340.5532365905014Q179.6117588627175 345.73271316438576 194.1259983013989 345.73271316438576L194.1259983013989 345.73271316438576Q208.05498614981093 345.73271316438576 216.77523484482515 342.25046620228267Q225.52474611935287 338.7682192401797 229.65076983075227 332.8571781784586Q233.74753096263814 326.97539969625103 233.74753096263814 319.80606771545075L233.74753096263814 319.80606771545075Q233.74753096263814 311.1736067589769 228.8021550248616 305.90634244655223Q223.85677908708504 300.63907813412754 215.83883230039413 297.5665072852131Q207.82088551370316 294.5231990158121 198.1349716947444 292.211455234248Q188.44905787578563 289.89971145268373 178.76314405682683 287.2660792964714Q169.07723023786804 284.63244714025905 160.94223313312324 280.18453505421155Q152.83649860789185 275.7658855476775 147.89112267011532 268.5087658283368Q142.9457467323388 261.2223835294826 142.9457467323388 249.42956398555393L142.9457467323388 249.42956398555393Q142.9457467323388 238.4853592475159 148.73973747600598 229.3261718597996Q154.53372821967315 220.1377218925698 166.5313858201961 214.57783178501037Q178.55830600023253 208.9886790979375 197.28635688885373 208.9886790979375L197.28635688885373 208.9886790979375Q209.72295318207875 208.9886790979375 221.95471141870948 212.4709260600405Q234.15720707582673 215.92391044263005 243.0237686684083 222.03978956094542L243.0237686684083 222.03978956094542L237.75650435598362 234.47638585417042Q228.27542859361915 228.15566867926077 217.6238496507158 225.20014814840025Q207.00153328732597 222.2446276175397 197.08151883225943 222.2446276175397L197.08151883225943 222.2446276175397Q183.82557031265725 222.2446276175397 175.16384677666994 225.84392489769658Q166.5313858201961 229.41395959834 162.43462468831024 235.4127883986015Q158.30860097691087 241.4408797783764 158.30860097691087 249.01988787236533L158.30860097691087 249.01988787236533Q158.30860097691087 257.6523488288392 163.28323949420087 262.9196131412639Q168.2286154319774 268.18687745368857 176.33434995720876 271.1423979845491Q184.4400844824401 274.0979185154097 194.1259983013989 276.4096622969738Q203.84117469987115 278.72140607853805 213.41003820077606 281.4720885528043Q223.0081642811944 284.19350844755695 231.1138988064258 288.5243702155507Q239.21963333165712 292.82596940403084 244.16500926943368 299.9953013848311Q249.13964778672369 307.1646333656314 249.13964778672369 318.7526148529658L249.13964778672369 318.7526148529658Q249.13964778672369 329.4919815344095 243.22860672500263 338.6511689221258Q237.31756566328153 347.83961888935556 225.20285774470472 353.399508996915Q213.08814982612785 358.9886616839879 194.1259983013989 358.9886616839879ZM298.651932323516 357.7303707649086L283.05497744283616 357.7303707649086L283.05497744283616 210.24697001701676L384.1864522413906 210.24697001701676L384.1864522413906 223.7370191727267L298.651932323516 223.7370191727267L298.651932323516 357.7303707649086ZM374.9102145356204 295.16697576510853L296.9547027117347 295.16697576510853L296.9547027117347 281.6769266093985L374.9102145356204 281.6769266093985L374.9102145356204 295.16697576510853Z " fill="#e7d045" transform="matrix(1.31440923890267,0,0,1.31440923890267,0,-73.2773261840189)"/><path d="M599.8889944471673 358.9886687351964L577.5757561658785 358.9886687351964L577.5757561658785 208.9886616107615L599.8889944471673 208.9886616107615L599.8889944471673 358.9886687351964ZM665.698302946387 294.60465519227057L511.7664476666588 294.60465519227057L511.7664476666588 273.71671186727554L665.698302946387 273.71671186727554L665.698302946387 294.60465519227057Z " fill="#A045r" transform="matrix(1.31440923890267,0,0,1.31440923890267,0,-73.2773261840189)"/></g></svg>